<?xml version="1.0" encoding="iso-8859-1"?>
<!-- Generator: Adobe Illustrator 19.0.0, SVG Export Plug-In . SVG Version: 6.00 Build 0)  -->
<svg version="1.1" id="Layer_1" xmlns="http://www.w3.org/2000/svg" xmlns:xlink="http://www.w3.org/1999/xlink" x="0px" y="0px"
	 viewBox="0 0 270.276 270.276" style="enable-background:new 0 0 270.276 270.276;" xml:space="preserve">
<g>
	<g>
		<g id="XMLID_29_">
			<g>
				<g>
					<g>
						<path style="fill:#F78F1E;" d="M186.583,139.763h67.252c-0.982,25.627-10.137,49.164-24.899,68.171
							C204.703,194.408,187.945,169.097,186.583,139.763z"/>
					</g>
				</g>
				<g>
					<g>
						<path style="fill:#F78F1E;" d="M253.36,123.449h-66.017c3.928-26.008,20.084-48.024,42.353-60.156
							C242.685,80.335,251.175,100.989,253.36,123.449z"/>
					</g>
				</g>
				<g>
					<g>
						<path style="fill:#2D213F;" d="M135.138,0c74.507,0,135.138,60.6,135.138,135.138c0,74.507-60.632,135.138-135.138,135.138
							C60.6,270.276,0,209.645,0,135.138C0,60.6,60.6,0,135.138,0z M253.836,139.763h-67.252
							c1.362,29.334,18.12,54.645,42.353,68.171C243.699,188.927,252.854,165.391,253.836,139.763z M187.344,123.449h66.017
							c-2.186-22.46-10.675-43.114-23.663-60.156C207.427,75.425,191.272,97.441,187.344,123.449z M218.673,50.716
							c-19.672-19.45-46.091-32.09-75.394-34.086v106.818h27.623C174.799,92.5,192.982,65.985,218.673,50.716z M143.279,253.646
							c28.89-1.996,54.961-14.287,74.538-33.294c-27.496-16.726-46.218-46.44-47.58-80.589h-26.958
							C143.279,139.763,143.279,253.646,143.279,253.646z M126.965,253.646V139.763H98.994
							c-1.33,33.895-19.767,63.419-46.947,80.209C71.687,239.2,97.917,251.65,126.965,253.646z M126.965,123.449V16.631
							c-29.492,1.996-56.07,14.794-75.774,34.466c25.342,15.332,43.272,41.657,47.137,72.352H126.965z M82.68,139.763H16.441
							c0.982,25.469,9.979,48.879,24.582,67.791C64.876,193.933,81.286,168.812,82.68,139.763z M16.884,123.449h64.972
							C77.991,97.727,62.152,75.9,40.263,63.704C27.433,80.652,19.07,101.148,16.884,123.449z"/>
					</g>
				</g>
				<g>
					<g>
						<path style="fill:#F78F1E;" d="M143.279,16.631c29.302,1.996,55.722,14.635,75.394,34.086
							c-25.691,15.269-43.874,41.783-47.77,72.733H143.28C143.279,123.449,143.279,16.631,143.279,16.631z"/>
					</g>
				</g>
				<g>
					<g>
						<path style="fill:#F78F1E;" d="M217.818,220.352c-19.577,19.007-45.648,31.298-74.538,33.294V139.763h26.958
							C171.6,173.912,190.321,203.626,217.818,220.352z"/>
					</g>
				</g>
				<g>
					<g>
						<path style="fill:#F78F1E;" d="M126.965,16.631v106.818H98.328c-3.865-30.696-21.794-57.02-47.137-72.352
							C70.895,31.425,97.473,18.627,126.965,16.631z"/>
					</g>
				</g>
				<g>
					<g>
						<path style="fill:#F78F1E;" d="M16.441,139.763H82.68c-1.394,29.049-17.803,54.169-41.657,67.791
							C26.419,188.642,17.423,165.232,16.441,139.763z"/>
					</g>
				</g>
				<g>
					<g>
						<path style="fill:#F78F1E;" d="M81.856,123.449H16.884c2.186-22.301,10.549-42.797,23.378-59.745
							C62.152,75.9,77.991,97.727,81.856,123.449z"/>
					</g>
				</g>
				<g>
					<g>
						<path style="fill:#F78F1E;" d="M253.36,123.449h-66.017c3.928-26.008,20.084-48.024,42.353-60.156
							C242.685,80.335,251.175,100.989,253.36,123.449z"/>
					</g>
				</g>
				<g>
					<g>
						<path style="fill:#F78F1E;" d="M126.965,139.763v113.882c-29.049-1.996-55.278-14.445-74.918-33.674
							c27.18-16.789,45.616-46.313,46.947-80.209C98.994,139.763,126.965,139.763,126.965,139.763z"/>
					</g>
				</g>
			</g>
		</g>
		<g>
			<g>
				<path style="fill:#E27B14;" d="M143.279,222.611v31.035c17.024-1.175,33.053-5.949,47.368-13.542
					C173.323,235.215,157.588,229.292,143.279,222.611z"/>
			</g>
		</g>
		<g>
			<g>
				<path style="fill:#E27B14;" d="M85.35,186.035c-8.182,13.821-19.634,25.491-33.303,33.937
					c19.64,19.229,45.87,31.678,74.918,33.674v-39.303C111.202,205.695,97.416,196.106,85.35,186.035z"/>
			</g>
		</g>
		<g>
			<g>
				<g>
					<path style="fill:#E27B14;" d="M42.474,139.763H16.441c0.982,25.469,9.979,48.879,24.582,67.791
						c13.447-7.679,24.525-19.013,31.884-32.644C60.844,163.376,50.799,151.459,42.474,139.763z"/>
				</g>
			</g>
		</g>
		<g>
			<g>
				<path style="fill:#E27B14;" d="M20.806,102.972c-1.863,6.618-3.231,13.444-3.922,20.477h14.923
					C27.563,116.366,23.923,109.492,20.806,102.972z"/>
			</g>
		</g>
	</g>
</g>
<g>
</g>
<g>
</g>
<g>
</g>
<g>
</g>
<g>
</g>
<g>
</g>
<g>
</g>
<g>
</g>
<g>
</g>
<g>
</g>
<g>
</g>
<g>
</g>
<g>
</g>
<g>
</g>
<g>
</g>
</svg>
