<?xml version="1.0" encoding="iso-8859-1"?>
<!-- Generator: Adobe Illustrator 19.0.0, SVG Export Plug-In . SVG Version: 6.00 Build 0)  -->
<svg version="1.1" id="Layer_1" xmlns="http://www.w3.org/2000/svg" xmlns:xlink="http://www.w3.org/1999/xlink" x="0px" y="0px"
	 viewBox="0 0 512 512" style="enable-background:new 0 0 512 512;" xml:space="preserve">
<g transform="translate(1 1)">
	<path style="fill:#FFDD09;" d="M400.067,502.467H109.933c-56.32,0-102.4-46.08-102.4-102.4V109.933
		c0-56.32,46.08-102.4,102.4-102.4h290.133c56.32,0,102.4,46.08,102.4,102.4v290.133
		C502.467,456.387,456.387,502.467,400.067,502.467"/>
	<path style="fill:#FD9808;" d="M400.067,7.533h-25.6c56.32,0,102.4,46.08,102.4,102.4v290.133c0,56.32-46.08,102.4-102.4,102.4
		h25.6c56.32,0,102.4-46.08,102.4-102.4V109.933C502.467,53.613,456.387,7.533,400.067,7.533"/>
	<path style="fill:#FFFFFF;" d="M109.933,7.533h25.6c-56.32,0-102.4,46.08-102.4,102.4v290.133c0,56.32,46.08,102.4,102.4,102.4
		h-25.6c-56.32,0-102.4-46.08-102.4-102.4V109.933C7.533,53.613,53.613,7.533,109.933,7.533"/>
	<path d="M186.733,348.867c-2.56,0-4.267-0.853-5.973-2.56l-84.48-84.48c-0.853-0.853-1.707-1.707-2.56-3.413
		c-1.707-3.413-0.853-6.827,1.707-9.387l85.333-85.333c3.413-3.413,8.533-3.413,11.947,0c3.413,3.413,3.413,8.533,0,11.947
		L113.347,255l79.36,79.36c3.413,3.413,3.413,8.533,0,11.947C191,348.013,189.293,348.867,186.733,348.867z"/>
	<path d="M323.267,348.867c-2.56,0-4.267-0.853-5.973-2.56c-3.413-3.413-3.413-8.533,0-11.947l79.36-79.36l-79.36-79.36
		c-3.413-3.413-3.413-8.533,0-11.947c3.413-3.413,8.533-3.413,11.947,0l84.48,84.48c0.853,0.853,1.707,1.707,2.56,3.413
		c1.707,3.413,0.853,6.827-1.707,9.387l-85.333,85.333C328.387,348.013,325.827,348.867,323.267,348.867z"/>
	<path d="M229.4,348.867c-0.853,0-1.707,0-2.56,0c-4.267-1.707-6.827-5.973-5.973-10.24l51.2-170.667
		c1.707-4.267,5.973-6.827,10.24-5.973c4.267,1.707,6.827,5.973,5.973,10.24l-51.2,170.667
		C236.227,346.307,232.813,348.867,229.4,348.867z"/>
	<path d="M400.067,511H109.933C48.493,511-1,461.507-1,400.067V109.933C-1,48.493,48.493-1,109.933-1h290.133
		C461.507-1,511,48.493,511,109.933v290.133C511,461.507,461.507,511,400.067,511z M109.933,16.067
		c-52.053,0-93.867,41.813-93.867,93.867v290.133c0,52.053,41.813,93.867,93.867,93.867h290.133
		c52.053,0,93.867-41.813,93.867-93.867V109.933c0-52.053-41.813-93.867-93.867-93.867H109.933z"/>
</g>
<g>
</g>
<g>
</g>
<g>
</g>
<g>
</g>
<g>
</g>
<g>
</g>
<g>
</g>
<g>
</g>
<g>
</g>
<g>
</g>
<g>
</g>
<g>
</g>
<g>
</g>
<g>
</g>
<g>
</g>
</svg>
